<svg width="692" height="99" viewBox="0 0 692 99" fill="none" xmlns="http://www.w3.org/2000/svg">
<path d="M0.544 97.128C0.373333 95.7627 0.373333 94.3973 0.544 93.032C2.93333 92.776 4.85333 92.4773 6.304 92.136C7.75467 91.7947 8.992 91.1973 10.016 90.344C11.04 89.4053 12.0213 88.04 12.96 86.248C13.8987 84.3707 15.008 81.768 16.288 78.44L43.936 7.52799C44.8747 7.18666 45.984 6.93066 47.264 6.75999C48.6293 6.58933 49.7813 6.504 50.72 6.504L78.24 79.592C79.4347 82.664 80.416 85.096 81.184 86.888C81.952 88.5947 82.8053 89.832 83.744 90.6C84.6827 91.368 85.8773 91.9227 87.328 92.264C88.7787 92.52 90.784 92.776 93.344 93.032C93.5147 94.3973 93.5147 95.7627 93.344 97.128C90.3573 97.128 87.2853 97.0853 84.128 97C80.9707 96.9147 77.8133 96.872 74.656 96.872C71.4133 96.872 68.128 96.9147 64.8 97C61.5573 97.0853 58.3147 97.128 55.072 97.128C54.816 95.848 54.816 94.4827 55.072 93.032C59.2533 92.6053 62.1547 92.2213 63.776 91.88C65.3973 91.4533 66.208 90.4293 66.208 88.808C66.208 88.1253 66.08 87.3573 65.824 86.504C65.568 85.6507 65.2267 84.584 64.8 83.304L57.504 63.592H28.704L22.304 81.256C21.7067 82.8773 21.2373 84.2427 20.896 85.352C20.64 86.376 20.512 87.3147 20.512 88.168C20.512 90.0453 21.3653 91.24 23.072 91.752C24.864 92.1787 27.7653 92.6053 31.776 93.032C31.9467 94.4827 31.9467 95.848 31.776 97.128C28.8747 97.128 26.016 97.0853 23.2 97C20.384 96.9147 17.5253 96.872 14.624 96.872C12.2347 96.872 9.93067 96.9147 7.712 97C5.49333 97.0853 3.104 97.128 0.544 97.128ZM30.624 58.216H55.584L43.04 24.168L30.624 58.216ZM134.395 97.128C134.224 95.7627 134.224 94.44 134.395 93.16C137.04 92.9893 139.003 92.7333 140.283 92.392C141.563 91.9653 142.416 91.112 142.843 89.832C143.27 88.552 143.483 86.504 143.483 83.688V57.832C143.483 52.712 142.672 48.9147 141.051 46.44C139.515 43.88 136.4 42.6 131.707 42.6C129.232 42.6 126.843 43.0693 124.539 44.008C122.235 44.8613 119.718 46.5253 116.987 49V82.408C116.987 85.736 117.158 88.1253 117.499 89.576C117.926 91.0267 118.779 91.9653 120.059 92.392C121.339 92.7333 123.344 92.9893 126.075 93.16C126.246 94.44 126.246 95.7627 126.075 97.128C123.686 97.128 121.168 97.0853 118.523 97C115.963 96.9147 113.19 96.872 110.203 96.872C107.472 96.872 104.784 96.9147 102.139 97C99.4937 97.0853 96.891 97.128 94.331 97.128C94.075 95.7627 94.075 94.44 94.331 93.16C97.2323 92.9893 99.3657 92.7333 100.731 92.392C102.096 91.9653 102.992 91.112 103.419 89.832C103.846 88.552 104.059 86.504 104.059 83.688V55.016C104.059 51.688 103.888 49.2133 103.547 47.592C103.291 45.9707 102.48 44.8613 101.115 44.264C99.835 43.5813 97.6163 43.0267 94.459 42.6C94.203 41.4053 94.203 40.296 94.459 39.272C101.798 37.8213 108.539 35.8587 114.683 33.384L116.859 34.152V43.752C120.784 40.168 124.624 37.6507 128.379 36.2C132.134 34.7493 135.718 34.024 139.131 34.024C144.763 34.024 149.072 35.688 152.059 39.016C155.046 42.344 156.539 47.1227 156.539 53.352V82.408C156.539 85.736 156.71 88.1253 157.051 89.576C157.478 91.0267 158.331 91.9653 159.611 92.392C160.891 92.7333 162.939 92.9893 165.755 93.16C165.926 94.44 165.926 95.7627 165.755 97.128C163.195 97.128 160.678 97.0853 158.203 97C155.814 96.9147 152.998 96.872 149.755 96.872C146.598 96.872 143.824 96.9147 141.435 97C139.131 97.0853 136.784 97.128 134.395 97.128ZM203.456 97.128C201.067 97.128 198.592 97.0853 196.032 97C193.472 96.9147 190.699 96.872 187.712 96.872C184.981 96.872 182.208 96.9147 179.392 97C176.661 97.0853 174.016 97.128 171.456 97.128C171.2 95.7627 171.2 94.44 171.456 93.16C174.357 92.9893 176.491 92.7333 177.856 92.392C179.221 91.9653 180.117 91.112 180.544 89.832C180.971 88.552 181.184 86.504 181.184 83.688V55.016C181.184 51.688 181.056 49.2133 180.8 47.592C180.544 45.9707 179.733 44.8613 178.368 44.264C177.088 43.5813 174.827 43.0267 171.584 42.6C171.328 41.4053 171.328 40.296 171.584 39.272C175.339 38.5893 178.923 37.736 182.336 36.712C185.749 35.688 189.035 34.5787 192.192 33.384L194.368 34.152C194.283 36.7973 194.197 39.272 194.112 41.576C194.112 43.88 194.112 46.056 194.112 48.104V82.408C194.112 85.736 194.283 88.1253 194.624 89.576C195.051 91.0267 195.904 91.9653 197.184 92.392C198.549 92.7333 200.64 92.9893 203.456 93.16C203.712 94.44 203.712 95.7627 203.456 97.128ZM177.856 11.624C177.856 9.14933 178.709 7.05866 180.416 5.352C182.208 3.64533 184.341 2.79199 186.816 2.79199C189.205 2.79199 191.253 3.64533 192.96 5.352C194.752 7.05866 195.648 9.10666 195.648 11.496C195.648 13.7147 194.795 15.7627 193.088 17.64C191.381 19.432 189.205 20.328 186.56 20.328C184.171 20.328 182.123 19.4747 180.416 17.768C178.709 16.0613 177.856 14.0133 177.856 11.624ZM215.469 76.776C216.749 82.408 218.797 86.7173 221.613 89.704C224.429 92.6053 228.056 94.056 232.493 94.056C235.821 94.056 238.637 93.288 240.941 91.752C243.245 90.1307 244.397 87.6133 244.397 84.2C244.397 81.64 243.757 79.592 242.477 78.056C241.282 76.52 239.576 75.24 237.357 74.216C235.224 73.1067 232.792 71.9973 230.061 70.888C226.904 69.608 223.917 68.2427 221.101 66.792C218.37 65.256 216.109 63.3787 214.317 61.16C212.61 58.856 211.757 55.912 211.757 52.328C211.757 48.232 212.824 44.8613 214.957 42.216C217.176 39.4853 219.992 37.4373 223.405 36.072C226.904 34.7067 230.616 34.024 234.541 34.024C236.504 34.024 238.466 34.152 240.429 34.408C242.392 34.664 243.458 34.792 243.629 34.792C245.336 35.048 246.914 35.2187 248.365 35.304C249.816 35.304 250.584 35.304 250.669 35.304C250.754 35.304 250.925 35.304 251.181 35.304C251.522 35.304 251.949 35.2613 252.461 35.176C252.461 37.9067 252.504 40.68 252.589 43.496C252.674 46.312 252.845 49.2987 253.101 52.456C253.016 52.456 252.845 52.456 252.589 52.456C251.821 52.5413 251.096 52.6267 250.413 52.712C249.816 52.712 249.218 52.6693 248.621 52.584C247.512 47.8053 245.848 44.3493 243.629 42.216C241.496 39.9973 238.466 38.888 234.541 38.888C231.042 38.888 228.226 39.656 226.093 41.192C224.045 42.728 223.021 44.8613 223.021 47.592C223.021 49.8107 223.704 51.6453 225.069 53.096C226.434 54.4613 228.098 55.6133 230.061 56.552C232.024 57.4907 233.901 58.3013 235.693 58.984C239.021 60.264 242.178 61.7147 245.165 63.336C248.237 64.872 250.712 66.8773 252.589 69.352C254.552 71.8267 255.533 75.1547 255.533 79.336C255.533 83.7733 254.381 87.4427 252.077 90.344C249.858 93.16 247 95.2507 243.501 96.616C240.002 97.896 236.333 98.536 232.493 98.536C230.274 98.536 228.056 98.3653 225.837 98.024C223.704 97.6827 222.552 97.512 222.381 97.512C222.21 97.512 221.485 97.4267 220.205 97.256C219.01 97.0853 217.645 96.9147 216.109 96.744C214.658 96.5733 213.378 96.488 212.269 96.488C212.269 93.8427 212.141 90.8987 211.885 87.656C211.714 84.4133 211.501 80.8293 211.245 76.904C211.416 76.904 211.629 76.904 211.885 76.904C212.653 76.8187 213.293 76.776 213.805 76.776C214.402 76.6907 214.957 76.6907 215.469 76.776ZM289.303 98.536C283.756 98.536 279.447 96.9147 276.375 93.672C273.388 90.344 271.895 85.5653 271.895 79.336V53.48C271.895 50.152 271.724 47.6773 271.383 46.056C271.127 44.4347 270.316 43.2827 268.951 42.6C267.671 41.9173 265.452 41.3627 262.295 40.936C261.868 39.8267 261.868 38.76 262.295 37.736C265.964 37.224 269.463 36.6693 272.791 36.072C276.204 35.4747 279.618 34.7493 283.031 33.896L284.951 34.792C284.866 37.4373 284.78 39.9547 284.695 42.344C284.695 44.648 284.695 46.824 284.695 48.872V74.728C284.695 79.848 285.463 83.688 286.999 86.248C288.62 88.7227 291.735 89.96 296.343 89.96C298.903 89.96 301.292 89.4053 303.511 88.296C305.815 87.1013 307.991 85.3947 310.039 83.176V53.48C310.039 50.152 309.868 47.6773 309.527 46.056C309.271 44.4347 308.46 43.2827 307.095 42.6C305.815 41.9173 303.596 41.3627 300.439 40.936C300.183 39.8267 300.183 38.76 300.439 37.736C304.108 37.224 307.607 36.6693 310.935 36.072C314.348 35.4747 317.804 34.7493 321.303 33.896L323.223 34.792C323.138 37.4373 323.052 39.9547 322.967 42.344C322.967 44.648 322.967 46.824 322.967 48.872V82.024C322.967 84.584 323.095 86.504 323.351 87.784C323.692 89.064 324.546 90.0027 325.911 90.6C327.362 91.112 329.708 91.5387 332.951 91.88C333.036 92.904 333.036 93.9707 332.951 95.08C329.282 95.4213 325.783 95.848 322.455 96.36C319.127 96.872 315.884 97.512 312.727 98.28L310.679 97.384L310.423 88.424C303.34 95.1653 296.3 98.536 289.303 98.536ZM369.688 97.128C367.213 97.128 364.696 97.0853 362.136 97C359.576 96.9147 356.717 96.872 353.56 96.872C350.403 96.872 347.587 96.9147 345.112 97C342.637 97.0853 340.12 97.128 337.56 97.128C337.304 95.7627 337.304 94.44 337.56 93.16C340.461 92.9893 342.595 92.7333 343.96 92.392C345.325 91.9653 346.221 91.112 346.648 89.832C347.075 88.552 347.288 86.504 347.288 83.688V19.56C347.288 16.9147 347.032 14.952 346.52 13.672C346.093 12.3067 345.112 11.368 343.576 10.856C342.125 10.2587 339.907 9.832 336.92 9.576C336.664 8.46666 336.664 7.31466 336.92 6.12C340.333 5.69333 343.832 5.05333 347.416 4.2C351 3.26133 354.669 1.98133 358.424 0.359993L360.6 1.128C360.515 3.00533 360.429 5.13866 360.344 7.52799C360.344 9.91733 360.344 12.52 360.344 15.336V82.408C360.344 85.736 360.515 88.1253 360.856 89.576C361.283 91.0267 362.136 91.9653 363.416 92.392C364.781 92.7333 366.872 92.9893 369.688 93.16C369.859 94.44 369.859 95.7627 369.688 97.128ZM397.044 97.128C396.873 95.7627 396.873 94.3973 397.044 93.032C399.433 92.776 401.353 92.4773 402.804 92.136C404.255 91.7947 405.492 91.1973 406.516 90.344C407.54 89.4053 408.521 88.04 409.46 86.248C410.399 84.3707 411.508 81.768 412.788 78.44L440.436 7.52799C441.375 7.18666 442.484 6.93066 443.764 6.75999C445.129 6.58933 446.281 6.504 447.22 6.504L474.74 79.592C475.935 82.664 476.916 85.096 477.684 86.888C478.452 88.5947 479.305 89.832 480.244 90.6C481.183 91.368 482.377 91.9227 483.828 92.264C485.279 92.52 487.284 92.776 489.844 93.032C490.015 94.3973 490.015 95.7627 489.844 97.128C486.857 97.128 483.785 97.0853 480.628 97C477.471 96.9147 474.313 96.872 471.156 96.872C467.913 96.872 464.628 96.9147 461.3 97C458.057 97.0853 454.815 97.128 451.572 97.128C451.316 95.848 451.316 94.4827 451.572 93.032C455.753 92.6053 458.655 92.2213 460.276 91.88C461.897 91.4533 462.708 90.4293 462.708 88.808C462.708 88.1253 462.58 87.3573 462.324 86.504C462.068 85.6507 461.727 84.584 461.3 83.304L454.004 63.592H425.204L418.804 81.256C418.207 82.8773 417.737 84.2427 417.396 85.352C417.14 86.376 417.012 87.3147 417.012 88.168C417.012 90.0453 417.865 91.24 419.572 91.752C421.364 92.1787 424.265 92.6053 428.276 93.032C428.447 94.4827 428.447 95.848 428.276 97.128C425.375 97.128 422.516 97.0853 419.7 97C416.884 96.9147 414.025 96.872 411.124 96.872C408.735 96.872 406.431 96.9147 404.212 97C401.993 97.0853 399.604 97.128 397.044 97.128ZM427.124 58.216H452.084L439.54 24.168L427.124 58.216ZM490.831 97.128C490.575 95.7627 490.575 94.44 490.831 93.16C493.732 92.9893 495.866 92.7333 497.231 92.392C498.596 91.9653 499.492 91.112 499.919 89.832C500.346 88.552 500.559 86.504 500.559 83.688V55.016C500.559 51.688 500.388 49.2133 500.047 47.592C499.791 45.9707 498.98 44.8613 497.615 44.264C496.335 43.5813 494.116 43.0267 490.959 42.6C490.703 41.4053 490.703 40.296 490.959 39.272C494.372 38.5893 497.7 37.8213 500.943 36.968C504.186 36.0293 507.599 34.8347 511.183 33.384L513.359 34.152V45.416C519.332 37.8213 525.434 34.024 531.663 34.024C534.65 34.024 536.868 34.8347 538.319 36.456C539.77 37.992 540.495 39.7413 540.495 41.704C540.495 44.008 539.727 45.8 538.191 47.08C536.655 48.2747 534.906 48.872 532.943 48.872C531.322 48.872 529.7 48.4453 528.079 47.592C526.543 46.7387 525.391 45.416 524.623 43.624C521.722 43.624 519.119 44.776 516.815 47.08C514.596 49.2987 513.487 51.9013 513.487 54.888V82.408C513.487 85.736 513.658 88.1253 513.999 89.576C514.426 91.0267 515.45 91.9653 517.071 92.392C518.778 92.7333 521.508 92.9893 525.263 93.16C525.434 94.3547 525.434 95.6773 525.263 97.128C522.362 97.128 519.375 97.0853 516.303 97C513.231 96.9147 510.074 96.872 506.831 96.872C503.674 96.872 500.858 96.9147 498.383 97C495.994 97.0853 493.476 97.128 490.831 97.128ZM543.331 97.128C543.246 95.848 543.246 94.5253 543.331 93.16C546.318 92.9893 548.494 92.7333 549.859 92.392C551.224 91.9653 552.078 91.112 552.419 89.832C552.846 88.552 553.059 86.504 553.059 83.688V42.344H542.435C542.179 41.064 542.179 39.912 542.435 38.888C545.848 38.376 548.28 37.864 549.731 37.352C551.267 36.84 552.206 36.1147 552.547 35.176C552.974 34.152 553.23 32.616 553.315 30.568C553.571 24.3387 555.022 18.9627 557.667 14.44C560.312 9.91733 563.982 6.46133 568.675 4.072C573.368 1.59733 578.787 0.359993 584.931 0.359993C587.491 0.359993 590.179 0.701327 592.995 1.384C595.811 1.98133 598.158 3.00533 600.035 4.45599C601.998 5.90666 602.979 7.91199 602.979 10.472C602.979 12.6053 602.296 14.2267 600.931 15.336C599.651 16.36 598.03 16.872 596.067 16.872C593.422 16.872 591.203 15.848 589.411 13.8C587.704 11.752 586.808 9.36266 586.723 6.632C586.126 6.37599 585.315 6.20533 584.291 6.12C583.267 5.94933 582.243 5.864 581.219 5.864C576.184 5.864 572.387 7.656 569.827 11.24C567.352 14.7387 566.115 20.6693 566.115 29.032V36.456H583.779V42.344H566.115V82.408C566.115 85.736 566.286 88.1253 566.627 89.576C567.054 91.0267 567.907 91.9653 569.187 92.392C570.552 92.7333 572.643 92.9893 575.459 93.16C575.715 94.3547 575.715 95.6773 575.459 97.128C573.07 97.128 570.595 97.0853 568.035 97C565.475 96.9147 562.574 96.872 559.331 96.872C556.174 96.872 553.358 96.9147 550.883 97C548.494 97.0853 545.976 97.128 543.331 97.128ZM574.142 42.344V36.456H588.094C590.483 36.456 592.745 36.2427 594.878 35.816C597.097 35.3893 599.657 34.5787 602.558 33.384L604.734 34.152C604.649 36.7973 604.563 39.3147 604.478 41.704C604.478 44.008 604.478 46.184 604.478 48.232V82.408C604.478 85.736 604.649 88.1253 604.99 89.576C605.417 91.0267 606.27 91.9653 607.55 92.392C608.915 92.7333 611.006 92.9893 613.822 93.16C614.078 94.44 614.078 95.7627 613.822 97.128C611.433 97.128 608.873 97.0853 606.142 97C603.497 96.9147 600.681 96.872 597.694 96.872C594.963 96.872 592.275 96.9147 589.63 97C586.985 97.0853 584.382 97.128 581.822 97.128C581.566 95.7627 581.566 94.44 581.822 93.16C584.723 92.9893 586.857 92.7333 588.222 92.392C589.587 91.9653 590.483 91.112 590.91 89.832C591.337 88.552 591.55 86.504 591.55 83.688V48.232C591.55 45.7573 591.123 44.1787 590.27 43.496C589.417 42.728 587.881 42.344 585.662 42.344H574.142ZM660.02 97.128C659.849 95.7627 659.849 94.44 660.02 93.16C662.665 92.9893 664.628 92.7333 665.908 92.392C667.188 91.9653 668.041 91.112 668.468 89.832C668.895 88.552 669.108 86.504 669.108 83.688V57.832C669.108 52.712 668.297 48.9147 666.676 46.44C665.14 43.88 662.025 42.6 657.332 42.6C654.857 42.6 652.468 43.0693 650.164 44.008C647.86 44.8613 645.343 46.5253 642.612 49V82.408C642.612 85.736 642.783 88.1253 643.124 89.576C643.551 91.0267 644.404 91.9653 645.684 92.392C646.964 92.7333 648.969 92.9893 651.7 93.16C651.871 94.44 651.871 95.7627 651.7 97.128C649.311 97.128 646.793 97.0853 644.148 97C641.588 96.9147 638.815 96.872 635.828 96.872C633.097 96.872 630.409 96.9147 627.764 97C625.119 97.0853 622.516 97.128 619.956 97.128C619.7 95.7627 619.7 94.44 619.956 93.16C622.857 92.9893 624.991 92.7333 626.356 92.392C627.721 91.9653 628.617 91.112 629.044 89.832C629.471 88.552 629.684 86.504 629.684 83.688V55.016C629.684 51.688 629.513 49.2133 629.172 47.592C628.916 45.9707 628.105 44.8613 626.74 44.264C625.46 43.5813 623.241 43.0267 620.084 42.6C619.828 41.4053 619.828 40.296 620.084 39.272C627.423 37.8213 634.164 35.8587 640.308 33.384L642.484 34.152V43.752C646.409 40.168 650.249 37.6507 654.004 36.2C657.759 34.7493 661.343 34.024 664.756 34.024C670.388 34.024 674.697 35.688 677.684 39.016C680.671 42.344 682.164 47.1227 682.164 53.352V82.408C682.164 85.736 682.335 88.1253 682.676 89.576C683.103 91.0267 683.956 91.9653 685.236 92.392C686.516 92.7333 688.564 92.9893 691.38 93.16C691.551 94.44 691.551 95.7627 691.38 97.128C688.82 97.128 686.303 97.0853 683.828 97C681.439 96.9147 678.623 96.872 675.38 96.872C672.223 96.872 669.449 96.9147 667.06 97C664.756 97.0853 662.409 97.128 660.02 97.128Z" fill="#ECEEEC"/>
</svg>
